<?xml version="1.0" encoding="utf-8"?>
<!-- Generator: Adobe Illustrator 17.1.0, SVG Export Plug-In . SVG Version: 6.00 Build 0)  -->
<!DOCTYPE svg PUBLIC "-//W3C//DTD SVG 1.1//EN" "http://www.w3.org/Graphics/SVG/1.1/DTD/svg11.dtd">
<svg version="1.1" id="Layer_1" xmlns="http://www.w3.org/2000/svg" xmlns:xlink="http://www.w3.org/1999/xlink" x="0px" y="0px"
	 viewBox="0 0 902 718" enable-background="new 0 0 902 718" xml:space="preserve">
<g>
	<path fill="#0F7ABA" d="M363.4,390c4.4-135.5,46-254.6,161.8-335c114-79.2,265.3-56.5,335.7,46.9c34,50,49,103.9,19.9,162.3
		c-28,56.1-71.8,89.5-136.2,91.4c-57.6,1.7-98.5-27-129.7-72.6c-33.5-48.9-71.4-50.4-110.2-4.9c-67,78.6-65.5,167.2-37.2,259.1
		c11.6,37.6,24.9,74.8,39.8,111.2c6.3,15.4,5.6,25.6-4.6,38.9c-24.4,31.7-23.6,32.4-45-1.6C401.2,595.2,361.8,499.3,363.4,390z"/>
	<path fill="#0F7ABA" d="M146.8,34.8c97.4,0.1,180.8,65.7,221.9,174.8c1.6,4.2,2,8.9,3,13.3c-10.4-1.4-26.2,1.1-30.3-4.7
		c-28-40.1-50.3-86.7-98.5-105.4c-22.7-8.8-51-5-76.4-3c-4.6,0.4-13.2,21.7-10.4,30.3c12.1,37.2,10.6,69.6-21.9,95.6
		c-22.8,18.3-60.7,20.2-86.8,5c-28-16.3-46.3-58.9-41-95.4C15.8,80.8,74.3,34.7,146.8,34.8z"/>
</g>
</svg>
